<?xml version="1.0" standalone="no"?><!-- Generator: Gravit.io --><svg xmlns="http://www.w3.org/2000/svg" xmlns:xlink="http://www.w3.org/1999/xlink" style="isolation:isolate" viewBox="0 0 64 64" width="64" height="64"><defs><clipPath id="_clipPath_LUlDT3iLYAPvJG57KREjfj6p6TLUGJWg"><rect width="64" height="64"/></clipPath></defs><g clip-path="url(#_clipPath_LUlDT3iLYAPvJG57KREjfj6p6TLUGJWg)"><path d=" M 52.547 17.965 L 47.823 14.043 C 46.954 13.321 42.991 16.659 38.978 21.494 L 17.164 47.77 L 22.191 51.943 C 22.893 52.526 26.093 49.83 29.334 45.927 L 52.547 17.965 Z " fill-rule="evenodd" fill="rgb(255,255,255)"/><path d=" M 19.507 16.187 L 16.673 21.634 C 16.151 22.636 17.353 24.295 19.355 25.337 L 30.237 31 L 33.253 25.204 C 33.674 24.395 32.704 23.055 31.087 22.214 L 19.507 16.187 Z " fill-rule="evenodd" fill="rgb(255,255,255)"/><path d=" M 42.059 35 C 42.059 32.125 43.825 29.791 46 29.791 C 48.175 29.791 49.941 32.125 49.941 35 C 49.941 37.875 48.175 40.209 46 40.209 C 43.825 40.209 42.059 37.875 42.059 35 Z " fill="rgb(0,255,255)"/></g></svg>